<svg viewBox="0 0 24 24">
  <path fill="currentColor" d="M12.207 6.207L11.5 5.5L12.207 4.793L12.914 5.5L12.207 6.207ZM13.207 18.207C13.207 18.4722 13.1016 18.7266 12.9141 18.9141C12.7266 19.1016 12.4722 19.207 12.207 19.207C11.9418 19.207 11.6874 19.1016 11.4999 18.9141C11.3124 18.7266 11.207 18.4722 11.207 18.207L13.207 18.207ZM7.5 9.5L11.5 5.5L12.914 6.914L8.914 10.914L7.5 9.5ZM12.914 5.5L16.914 9.5L15.5 10.914L11.5 6.914L12.914 5.5ZM13.207 6.207L13.207 18.207L11.207 18.207L11.207 6.207L13.207 6.207Z" />
</svg>
