<svg viewBox="0 0 20 20" fill="currentColor">
    <path d="M12.9117 9.87331C13.0294 9.90515 13.0294 10.0948 12.9117 10.1267C11.982 10.3781 10.0077 11.0039 9.0058 12.0058C8.00392 13.0077 7.37811 14.982 7.12669 15.9117C7.09485 16.0294 6.90515 16.0294 6.87331 15.9117C6.62189 14.982 5.99608 13.0077 4.9942 12.0058C3.99232 11.0039 2.01803 10.3781 1.08831 10.1267C0.970564 10.0948 0.970564 9.90515 1.08831 9.87331C2.01803 9.62189 3.99232 8.99608 4.9942 7.9942C5.99608 6.99232 6.62189 5.01803 6.87331 4.08831C6.90515 3.97056 7.09485 3.97056 7.12669 4.08831C7.37811 5.01803 8.00392 6.99232 9.0058 7.9942C10.0077 8.99608 11.982 9.62189 12.9117 9.87331Z"/>
    <path d="M19.9338 5.40498C20.0221 5.42886 20.0221 5.57114 19.9338 5.59502C19.2365 5.78358 17.7558 6.25294 17.0043 7.00435C16.2529 7.75576 15.7836 9.23648 15.595 9.93377C15.5711 10.0221 15.4289 10.0221 15.405 9.93377C15.2164 9.23648 14.7471 7.75576 13.9957 7.00435C13.2442 6.25294 11.7635 5.78358 11.0662 5.59502C10.9779 5.57114 10.9779 5.42886 11.0662 5.40498C11.7635 5.21642 13.2442 4.74706 13.9957 3.99565C14.7471 3.24424 15.2164 1.76352 15.405 1.06623C15.4289 0.977923 15.5711 0.977923 15.595 1.06623C15.7836 1.76352 16.2529 3.24424 17.0043 3.99565C17.7558 4.74706 19.2365 5.21642 19.9338 5.40498Z"/>
    <path d="M16.9558 14.9367C17.0147 14.9526 17.0147 15.0474 16.9558 15.0633C16.491 15.1891 15.5038 15.502 15.0029 16.0029C14.502 16.5038 14.1891 17.491 14.0633 17.9558C14.0474 18.0147 13.9526 18.0147 13.9367 17.9558C13.8109 17.491 13.498 16.5038 12.9971 16.0029C12.4962 15.502 11.509 15.1891 11.0442 15.0633C10.9853 15.0474 10.9853 14.9526 11.0442 14.9367C11.509 14.8109 12.4962 14.498 12.9971 13.9971C13.498 13.4962 13.8109 12.509 13.9367 12.0442C13.9526 11.9853 14.0474 11.9853 14.0633 12.0442C14.1891 12.509 14.502 13.4962 15.0029 13.9971C15.5038 14.498 16.491 14.8109 16.9558 14.9367Z"/>
</svg>
