<svg viewBox="0 0 32 32" fill="none" xmlns="http://www.w3.org/2000/svg">
  <path d="M26.8928 2C27.3201 2 27.7249 2.07862 28.1072 2.23585C28.4895 2.39308 28.8268 2.6177 29.1192 2.9097C29.4115 3.20171 29.6252 3.53863 29.7601 3.92049C29.895 4.30234 29.9738 4.70665 29.9962 5.13342C30.0187 5.5602 29.94 5.96451 29.7601 6.34636C29.5802 6.72821 29.3666 7.05391 29.1192 7.32345C28.8718 7.59299 28.5345 7.81761 28.1072 7.9973C27.6799 8.177 27.2751 8.26685 26.8928 8.26685C26.443 8.26685 26.0382 8.177 25.6784 7.9973C25.3186 7.81761 24.9813 7.59299 24.6664 7.32345C24.3516 7.05391 24.1267 6.72821 23.9918 6.34636C23.8568 5.96451 23.7781 5.5602 23.7556 5.13342C23.7331 4.70665 23.8118 4.30234 23.9918 3.92049C24.1717 3.53863 24.3965 3.20171 24.6664 2.9097C24.9363 2.6177 25.2736 2.39308 25.6784 2.23585C26.0832 2.07862 26.488 2 26.8928 2ZM24 10.5916H27C27 13.502 27 27 27 27H5C5 27 5 9.60346 5 5C5 5 13.6678 5.066 21.3943 5V8C20.0198 8.02846 8 8 8 8V24H24V10.5916Z" fill="black"/>
</svg>
